HIERARCHY
ROOT hip
{
	OFFSET 0.000000 0.000000 0.000000 
	CHANNELS 6 Xposition Yposition Zposition Xrotation Zrotation Yrotation
	JOINT abdomen
	{
		OFFSET 0.000000 3.402643 0.000000 
		CHANNELS 3 Xrotation Zrotation Yrotation
		JOINT chest
		{
			OFFSET 0.000000 8.438565 -0.680529 
			CHANNELS 3 Xrotation Zrotation Yrotation
			JOINT neck
			{
				OFFSET 0.000000 10.207942 -0.272212 
				CHANNELS 3 Xrotation Zrotation Yrotation
				JOINT head
				{
					OFFSET 0.000000 3.130431 0.000000 
					CHANNELS 3 Xrotation Zrotation Yrotation
					End Site
					{
						OFFSET 0.000000 3.130435 0.000000 
					}
				}
			}
			JOINT lCollar
			{
				OFFSET 3.470700 6.669187 -0.816635 
				CHANNELS 3 Yrotation Zrotation Xrotation
				JOINT lShldr
				{
					OFFSET 3.198488 0.000000 0.000000 
					CHANNELS 3 Zrotation Yrotation Xrotation
					JOINT lForeArm
					{
						OFFSET 10.139888 0.000000 0.000000 
						CHANNELS 3 Yrotation Zrotation Xrotation
						JOINT lHand
						{
							OFFSET 8.370511 0.000000 0.000000 
							CHANNELS 3 Zrotation Yrotation Xrotation
							End Site
							{
								OFFSET 4.083176 0.000000 0.000000 
							}
						}
					}
				}
			}
			JOINT rCollar
			{
				OFFSET -3.470700 6.669187 -0.816635 
				CHANNELS 3 Yrotation Zrotation Xrotation
				JOINT rShldr
				{
					OFFSET -3.198488 0.000000 0.000000 
					CHANNELS 3 Zrotation Yrotation Xrotation
					JOINT rForeArm
					{
						OFFSET -10.139888 0.000000 0.000000 
						CHANNELS 3 Yrotation Zrotation Xrotation
						JOINT rHand
						{
							OFFSET -8.370511 0.000000 0.000000 
							CHANNELS 3 Zrotation Yrotation Xrotation
							End Site
							{
								OFFSET -4.083176 0.000000 0.000000 
							}
						}
					}
				}
			}
		}
	}
	JOINT lThigh
	{
		OFFSET 5.308129 -1.633274 1.361059 
		CHANNELS 3 Xrotation Zrotation Yrotation
		JOINT lShin
		{
			OFFSET -2.041588 -20.007561 0.000000 
			CHANNELS 3 Xrotation Zrotation Yrotation
			JOINT lFoot
			{
				OFFSET 0.000000 -19.190928 -1.224953 
				CHANNELS 3 Xrotation Yrotation Zrotation
				End Site
				{
					OFFSET 0.000000 -2.449906 4.627600 
				}
			}
		}
	}
	JOINT rThigh
	{
		OFFSET -5.308129 -1.633274 1.361059 
		CHANNELS 3 Xrotation Zrotation Yrotation
		JOINT rShin
		{
			OFFSET 2.041588 -20.007561 0.000000 
			CHANNELS 3 Xrotation Zrotation Yrotation
			JOINT rFoot
			{
				OFFSET 0.000000 -19.190928 -1.224953 
				CHANNELS 3 Xrotation Yrotation Zrotation
				End Site
				{
					OFFSET 0.000000 -2.449906 4.627600 
				}
			}
		}
	}
}
MOTION
Frames: 16
Frame Time: 0.016667
-0.056901 45.890850 0.846155 3.731130 1.081690 0.432036 -21.297100 -0.778376 1.456160 24.297501 -1.013460 0.470688 -1.218610 0.478943 -2.358320 4.572360 4.617670 -1.018360 2.000000 -2.000000 0.000000 96.582001 175.518005 3.963940 21.064699 -0.342428 0.049199 0.061810 -0.048195 -154.401993 -2.000000 2.000000 0.000000 88.023903 -12.409300 162.139008 -19.629101 0.343619 0.045930 -0.055112 -0.005361 -131.511993 -2.958074 -1.967376 -0.984981 6.010481 4.072532 0.302498 -5.361471 -4.973951 -0.564123 -0.321763 3.485615 10.204529 4.206890 -4.105163 -0.190179 -18.415646 -17.465092 -5.132452 
-0.060041 45.888023 0.867288 3.740810 1.003720 0.554064 -21.354799 -0.787924 1.597550 24.287901 -1.159650 0.519900 -1.403480 0.285050 -2.053670 4.464270 4.500790 -0.871671 2.000000 -2.000000 0.000000 96.816299 175.528000 3.768650 20.683800 -0.342752 0.048350 0.061381 -0.056576 -153.884995 -2.000000 2.000000 0.000000 88.257698 -12.612400 161.268997 -19.687700 0.343572 0.046061 -0.055195 -0.006205 -131.209000 -3.023719 -1.872220 -1.005001 6.122723 4.115845 0.303406 -5.348950 -5.133613 -0.600380 -0.384244 3.586990 10.085392 4.437425 -4.104795 -0.209484 -18.526239 -17.420412 -5.173154 
-0.069551 45.892906 0.879285 3.692040 1.062240 0.664412 -21.285900 -0.806563 1.686970 24.317200 -1.188840 0.556444 -1.457720 0.156721 -1.643360 4.503270 4.432320 -0.664109 2.000000 -2.000000 0.000000 96.982300 175.792999 3.241940 20.341999 -0.343038 0.047587 0.050690 -0.043662 -152.712997 -2.000000 2.000000 0.000000 88.325600 -12.474600 160.809998 -19.511900 0.343713 0.045666 -0.055154 -0.005797 -131.354996 -2.889540 -1.894979 -0.988446 5.954370 4.016624 0.310338 -5.117760 -5.250035 -0.534003 -0.340696 3.523042 9.930490 4.520643 -4.099564 -0.189256 -18.222940 -17.364553 -5.062263 
-0.069780 45.898560 0.895851 3.643310 1.150020 0.796058 -21.421900 -0.825664 1.802800 24.073099 -1.218410 0.608537 -1.194850 -0.143956 -1.454200 4.610600 4.285550 -0.569436 2.000000 -2.000000 0.000000 97.206902 175.645996 3.309950 20.107700 -0.343231 0.047062 0.050520 -0.043057 -152.488007 -2.000000 2.000000 0.000000 88.413498 -12.932800 160.438004 -19.687700 0.343572 0.046061 -0.055027 -0.004436 -131.843994 -2.912654 -2.031852 -1.030282 6.137451 4.076884 0.312104 -5.172501 -5.334413 -0.593870 -0.305675 3.448349 9.969059 4.634661 -4.105283 -0.208907 -18.383698 -17.417624 -5.132800 
-0.071350 45.884548 0.921827 3.691950 0.984282 1.010930 -21.441601 -0.793749 1.748830 24.112200 -1.257340 0.595513 -0.913659 -0.501962 -1.246510 4.747290 4.148440 -0.463308 2.000000 -2.000000 0.000000 97.314301 175.656998 3.075600 19.970900 -0.343343 0.046755 0.050623 -0.043425 -152.625000 -2.000000 2.000000 0.000000 88.305901 -12.893300 160.261993 -19.785400 0.343493 0.046281 -0.055013 -0.004272 -131.901993 -2.966089 -1.852214 -0.989850 6.154725 4.103135 0.303384 -4.959673 -5.523489 -0.600836 -0.310298 3.649526 9.901266 4.623315 -4.102753 -0.199210 -18.616909 -17.537958 -5.247498 
-0.067123 45.883144 0.931260 3.711590 1.071970 1.163460 -21.450701 -0.826443 1.856330 24.161100 -1.315750 0.629812 -1.088550 -0.580902 -1.263830 4.668840 4.109610 -0.469405 2.000000 -2.000000 0.000000 97.509598 175.656998 3.046300 19.980700 -0.343335 0.046777 0.050697 -0.043688 -152.723007 -2.000000 2.000000 0.000000 88.334999 -12.912200 159.988998 -19.902599 0.343398 0.046544 -0.054952 -0.003564 -132.156006 -2.910171 -1.917458 -1.006711 6.018806 4.008196 0.310123 -4.861005 -5.648513 -0.564640 -0.319988 3.513663 9.716890 4.552113 -4.094461 -0.199395 -18.552294 -17.454992 -5.218660 
-0.067381 45.890850 0.940681 3.662800 1.111010 1.311530 -21.538500 -0.783650 1.831310 23.946100 -1.218570 0.630768 -0.648965 -0.726725 -1.093530 4.874360 4.079700 -0.386788 2.000000 -2.000000 0.000000 97.587700 175.470993 3.094690 20.205299 -0.343151 0.047281 0.050832 -0.044162 -152.897995 -2.000000 2.000000 0.000000 88.071602 -13.059400 160.281998 -20.195499 0.343159 0.047201 -0.054759 -0.010766 -133.074005 -2.912974 -1.996876 -0.989871 6.151436 4.056451 0.320814 -4.829071 -5.751884 -0.597010 -0.264709 3.473938 9.622459 4.667712 -4.097341 -0.208382 -18.697056 -17.398632 -5.268598 
-0.067151 45.891750 0.956109 3.604280 1.179300 1.558840 -21.509800 -0.804473 1.775790 23.965500 -1.160050 0.614314 -0.097763 -1.064640 -1.154500 5.108900 3.952010 -0.401832 2.000000 -2.000000 0.000000 97.685303 175.559006 3.065600 20.293200 -0.343078 0.047477 0.060933 -0.055083 -153.328003 -2.000000 2.000000 0.000000 87.905403 -12.883300 160.164993 -20.283400 0.343086 0.047397 -0.054731 -0.010329 -133.229996 -2.827670 -2.094631 -1.030571 6.156471 4.066575 0.321498 -4.650273 -5.856760 -0.600821 -0.120718 3.377045 9.446741 4.610949 -4.102558 -0.209200 -18.678185 -17.466778 -5.282828 
-0.067293 45.890331 0.968382 3.653010 1.091530 1.681180 -21.528700 -0.822304 1.867290 24.034100 -1.315930 0.642493 0.961970 -0.954203 -1.059660 5.569120 3.989380 -0.330086 2.000000 -2.000000 0.000000 97.939301 175.714996 3.134330 20.215099 -0.343143 0.047302 0.061230 -0.056079 -153.699005 -2.000000 2.000000 0.000000 87.963699 -12.775200 159.862000 -20.537300 0.342875 0.047965 -0.054703 -0.009893 -133.386993 -2.899939 -1.999316 -1.020703 6.161029 4.059650 0.320915 -4.588328 -5.872355 -0.592849 -0.127992 3.476653 9.451323 4.547527 -4.114724 -0.209259 -18.844347 -17.450781 -5.337792 
-0.076063 45.890594 0.967236 3.692050 1.071990 1.690430 -21.499201 -0.777140 1.848720 24.102400 -1.228110 0.636606 1.917560 -1.218780 -1.026800 6.018990 3.889890 -0.292481 2.000000 -2.000000 0.000000 97.929497 176.018997 2.812790 20.176001 -0.343175 0.047215 0.061389 -0.056602 -153.893997 -2.000000 2.000000 0.000000 87.690399 -12.531800 160.175003 -20.683800 0.342752 0.048292 -0.054638 -0.008773 -133.787003 -2.947318 -1.947872 -0.965639 6.110518 4.063701 0.301757 -4.524539 -5.927410 -0.592203 -0.184227 3.501381 9.496018 4.563999 -4.096444 -0.209040 -18.704571 -17.588606 -5.327353 
-0.084772 45.885708 0.967815 3.721290 1.013480 1.784830 -21.605600 -0.774811 1.966090 23.995100 -1.325730 0.691632 2.605560 -1.430750 -1.097010 6.272980 3.781380 -0.308777 2.000000 -2.000000 0.000000 98.173698 176.028000 2.998360 20.263901 -0.343102 0.047412 0.061246 -0.056131 -153.718994 -2.000000 2.000000 0.000000 87.680496 -12.531500 160.039001 -20.976801 0.342503 0.048946 -0.054602 -0.008091 -134.031006 -3.062312 -1.866658 -1.001372 6.332314 4.100427 0.312519 -4.592686 -5.973600 -0.605053 -0.183933 3.587533 9.539846 4.516658 -4.103958 -0.189646 -18.780571 -17.590052 -5.354287 
-0.085827 45.885197 0.968665 3.701820 1.071980 1.924990 -21.703199 -0.803360 2.001060 23.877899 -1.335640 0.703542 3.288980 -1.463570 -1.249590 6.507810 3.770500 -0.371871 2.000000 -2.000000 0.000000 98.310402 176.067001 2.988680 20.429899 -0.342965 0.047783 0.061112 -0.055686 -153.552994 -2.000000 2.000000 0.000000 87.543999 -12.639400 160.242996 -21.445601 0.342099 0.049988 -0.054544 -0.006834 -134.479996 -2.977631 -1.924270 -1.030601 6.151808 4.019461 0.309683 -4.388436 -6.020820 -0.571376 -0.131200 3.515966 9.463105 4.483384 -4.113170 -0.219544 -18.790878 -17.769072 -5.428791 
-0.084087 45.892265 0.968382 3.604220 1.130570 2.151470 -21.752300 -0.842609 2.007540 23.741199 -1.374830 0.694788 4.027980 -1.650210 -1.518480 6.771600 3.681380 -0.495470 2.000000 -2.000000 0.000000 98.417801 176.106003 2.988780 20.576401 -0.342842 0.048110 0.061151 -0.055817 -153.600998 -2.000000 2.000000 0.000000 87.407402 -12.522800 160.498001 -21.709200 0.341867 0.050574 -0.054481 -0.005167 -135.076004 -2.907184 -2.043514 -1.148732 6.173222 4.075942 0.312212 -4.403191 -6.072227 -0.614712 0.052853 3.422946 9.360160 4.359401 -4.101339 -0.190025 -18.981989 -17.807388 -5.530759 
-0.085686 45.894825 0.968961 3.565110 1.101380 2.187930 -21.702999 -0.767067 1.986620 23.848499 -1.277190 0.707597 4.143990 -1.435530 -1.489450 6.782100 3.817890 -0.488261 2.000000 -2.000000 0.000000 98.378799 176.281998 3.008730 20.879101 -0.342587 0.048786 0.061373 -0.056550 -153.875000 -2.000000 2.000000 0.000000 87.036499 -12.191700 160.917999 -21.885000 0.341712 0.050963 -0.054446 -0.003937 -135.516006 -2.918404 -2.029207 -1.166822 6.308831 4.064687 0.311523 -4.571424 -6.131403 -0.628973 0.111559 3.459470 9.388076 4.336255 -4.111618 -0.190543 -18.867767 -17.851885 -5.504061 
-0.091654 45.899075 0.975232 3.525980 1.042940 2.388650 -21.673901 -0.827434 2.020330 23.868200 -1.423400 0.708446 3.890670 -1.182240 -1.491030 6.674950 3.916000 -0.490897 2.000000 -2.000000 0.000000 98.593697 176.595001 2.862990 21.113501 -0.342386 0.049308 0.061827 -0.048247 -154.421997 -2.000000 2.000000 0.000000 87.056000 -11.986700 160.987000 -22.402599 0.341246 0.052107 -0.054423 -0.002789 -135.925995 -2.897593 -1.943366 -1.204656 6.333831 4.081539 0.331259 -4.313681 -6.271803 -0.620335 0.236507 3.560959 9.417193 4.233774 -4.119018 -0.180776 -19.124750 -18.048170 -5.658531 
-0.109329 45.901131 0.985233 3.467210 0.887045 2.661310 -21.644699 -0.798260 1.986930 23.878000 -1.423390 0.698438 3.565950 -1.158560 -1.454170 6.547650 3.906900 -0.480467 2.000000 -2.000000 0.000000 98.730499 176.867996 3.137070 21.406500 -0.342133 0.049960 0.061647 -0.047673 -154.207001 -2.000000 2.000000 0.000000 86.977699 -11.713200 160.959000 -22.646700 0.341023 0.052645 -0.054409 -0.001886 -136.248001 -2.899499 -1.693342 -1.146539 6.419651 4.072709 0.311294 -4.187046 -6.507758 -0.617427 0.346953 3.798958 9.530971 4.207201 -4.117711 -0.170832 -19.307922 -18.333963 -5.810478 
